<svg xmlns="http://www.w3.org/2000/svg"  viewBox="0 0 50 50" width="20px" height="20px"><path d="M 42.970703 1.9726562 A 2.0002 2.0002 0 0 0 41 4 L 41 8.4804688 C 36.857952 4.4700924 31.208544 2 25 2 C 13.580975 2 4.0792463 10.37262 2.3027344 21.298828 L 2.296875 21.310547 L 2.2871094 21.382812 C 2.2519101 21.604544 2.2240994 21.828964 2.1953125 22.052734 L 2.1503906 22.382812 L 2.1425781 22.431641 L 2.1386719 22.482422 L 2.1347656 22.533203 C 2.1112396 22.752611 2.0954059 22.974126 2.078125 23.195312 L 2.046875 23.548828 L 2.0429688 23.597656 L 2.0410156 23.648438 L 2.0390625 23.683594 C 2.028065 23.877307 2.0237256 24.07263 2.0175781 24.267578 L 2.0019531 24.707031 L 2 24.757812 L 2.0019531 24.808594 L 2.0039062 24.878906 C 2.0036947 24.919469 2 24.959389 2 25 A 2.0002 2.0002 0 0 0 2.0078125 25.197266 A 2.0002 2.0002 0 0 0 2.0078125 25.199219 L 2.0136719 25.597656 L 2.7207031 27.095703 L 4.3125 27.546875 L 5.6992188 26.642578 L 6.0117188 25.541016 L 6.0039062 24.923828 C 6.0061586 24.352775 6.0366529 23.788376 6.0878906 23.230469 L 6.1132812 22.951172 C 7.1309525 13.403166 15.175553 6 25 6 C 29.961469 6 34.457277 7.8982503 37.835938 11 L 34 11 A 2.0002 2.0002 0 1 0 34 15 L 45 15 L 45 4 A 2.0002 2.0002 0 0 0 42.970703 1.9726562 z M 45.806641 22.976562 L 44.373047 23.804688 L 44.001953 24.890625 L 43.941406 26.466797 L 43.910156 26.732422 L 44.414062 28.308594 L 45.933594 28.964844 L 47.427734 28.25 L 47.882812 27.197266 L 47.921875 26.857422 L 47.931641 26.78125 L 47.933594 26.703125 L 47.998047 25.044922 L 47.373047 23.513672 L 45.806641 22.976562 z M 6.40625 31.435547 L 4.7578125 31.589844 L 3.7890625 32.933594 L 3.8964844 34.074219 L 4.0683594 34.5 L 4.1035156 34.587891 L 4.1484375 34.673828 L 5.0800781 36.464844 L 5.125 36.548828 L 5.1757812 36.628906 L 6.0058594 37.908203 L 7.4003906 38.798828 L 8.9882812 38.333984 L 9.6835938 36.832031 L 9.3613281 35.730469 L 8.5917969 34.546875 L 7.7402344 32.912109 L 7.6054688 32.578125 L 6.40625 31.435547 z M 44.658203 31.773438 L 43.019531 32.003906 L 42.267578 32.871094 L 42.033203 33.394531 L 41.423828 34.515625 L 41.306641 36.167969 L 42.472656 37.341797 L 44.125 37.234375 L 44.939453 36.425781 L 45.582031 35.242188 L 45.617188 35.175781 L 45.648438 35.107422 L 45.916016 34.511719 L 45.910156 32.857422 L 44.658203 31.773438 z M 38.181641 39.185547 L 37.111328 39.597656 L 36.177734 40.318359 L 35.246094 40.953125 L 34.853516 41.189453 L 33.914062 42.550781 L 34.322266 44.15625 L 35.798828 44.902344 L 36.910156 44.619141 L 37.353516 44.353516 L 37.404297 44.324219 L 37.453125 44.291016 L 38.478516 43.591797 L 38.527344 43.558594 L 38.572266 43.521484 L 39.556641 42.763672 L 40.330078 41.298828 L 39.736328 39.753906 L 38.181641 39.185547 z M 12.849609 40.470703 L 11.550781 41.498047 L 11.470703 43.152344 L 12.181641 44.050781 L 12.664062 44.388672 L 12.724609 44.431641 L 12.787109 44.46875 L 13.667969 44.994141 L 13.708984 45.019531 L 13.753906 45.042969 L 14.662109 45.525391 L 14.707031 45.548828 L 14.751953 45.570312 L 15.689453 46.009766 L 15.734375 46.03125 L 15.78125 46.050781 L 16.076172 46.171875 L 17.730469 46.109375 L 18.771484 44.822266 L 18.486328 43.191406 L 17.59375 42.470703 L 17.351562 42.371094 L 16.496094 41.970703 L 15.667969 41.529297 L 14.894531 41.068359 L 14.476562 40.775391 L 12.849609 40.470703 z M 28.060547 43.707031 L 27.916016 43.734375 L 26.808594 43.873047 L 25.652344 43.947266 L 25.4375 43.949219 L 23.933594 44.640625 L 23.464844 46.228516 L 24.353516 47.625 L 25.453125 47.949219 L 25.736328 47.947266 L 25.796875 47.947266 L 25.859375 47.943359 L 27.121094 47.861328 L 27.181641 47.857422 L 27.242188 47.849609 L 28.490234 47.693359 L 28.550781 47.685547 L 28.609375 47.673828 L 28.798828 47.638672 L 30.152344 46.6875 L 30.326172 45.041016 L 29.201172 43.828125 L 28.060547 43.707031 z"/></svg>