<svg xmlns="http://www.w3.org/2000/svg"  viewBox="0 0 30 30" width="20px" height="20px"><path d="M 15 3 A 1.0001 1.0001 0 0 0 14.642578 3.0722656 C 8.7535588 3.2725798 4 8.0632579 4 14 L 4 25 A 1.0001 1.0001 0 0 0 5 26 L 11 26 A 1.0001 1.0001 0 0 0 12 25 L 12 14 C 12 12.331516 13.331516 11 15 11 C 16.668484 11 18 12.331516 18 14 L 18 25 A 1.0001 1.0001 0 0 0 19 26 L 25 26 A 1.0001 1.0001 0 0 0 26 25 L 26 14 C 26 7.9365932 21.063407 3 15 3 z M 6 21 L 10 21 L 10 24 L 6 24 L 6 21 z M 20 21 L 24 21 L 24 24 L 20 24 L 20 21 z"/></svg>