<svg xmlns="http://www.w3.org/2000/svg"  viewBox="0 0 50 50" width="20px" height="20px"><path d="M 5 44.996094 C 4.984375 44.996094 4.972656 44.996094 4.957031 44.996094 C 4.417969 44.972656 3.992188 44.527344 4 43.988281 C 4.003906 43.742188 4.578125 19.679688 28 19.015625 L 28 12 C 28 11.613281 28.222656 11.261719 28.570313 11.097656 C 28.914063 10.929688 29.332031 10.980469 29.628906 11.222656 L 45.628906 24.222656 C 45.863281 24.414063 46 24.699219 46 25 C 46 25.300781 45.863281 25.585938 45.632813 25.777344 L 29.632813 38.777344 C 29.332031 39.019531 28.917969 39.066406 28.570313 38.902344 C 28.222656 38.738281 28 38.386719 28 38 L 28 31.007813 C 7.160156 31.386719 6.035156 43.542969 5.996094 44.066406 C 5.960938 44.59375 5.523438 44.996094 5 44.996094 Z"/></svg>